<svg width="224" height="224" viewBox="0 0 224 224" fill="none" xmlns="http://www.w3.org/2000/svg">
<rect width="224" height="224" rx="32" fill="url(#paint0_linear_24348_22519)"/>
<path fill-rule="evenodd" clip-rule="evenodd" d="M56.4043 64.7809C56.4043 46.6768 71.0811 32 89.1852 32H128.7C163.279 32 180.603 73.816 156.146 98.2726L151.553 102.866C148.068 106.351 142.416 106.351 138.93 102.866C135.445 99.3799 135.445 93.7284 138.93 90.2427L143.523 85.6497C156.735 72.4385 147.374 49.8515 128.7 49.8515H89.1852C80.9402 49.8515 74.2558 56.536 74.2558 64.7809V159.219C74.2558 167.464 80.9403 174.148 89.1852 174.148H128.7C147.38 174.148 156.737 151.563 143.523 138.35L138.93 133.757C135.445 130.272 135.445 124.62 138.93 121.134C142.416 117.649 148.068 117.649 151.553 121.134L156.146 125.727C180.601 150.182 163.29 192 128.7 192H89.1852C71.0811 192 56.4043 177.323 56.4043 159.219V64.7809ZM88.3486 69.1585C91.8343 65.6728 97.4857 65.6728 100.971 69.1585L137.506 105.693C139.18 107.367 140.12 109.637 140.12 112.004C140.12 114.371 139.18 116.642 137.506 118.316L100.971 154.85C97.4857 158.336 91.8343 158.336 88.3486 154.85C84.8628 151.364 84.8628 145.713 88.3486 142.227L118.571 112.004L88.3486 81.7814C84.8628 78.2957 84.8628 72.6442 88.3486 69.1585Z" fill="white"/>
<defs>
<linearGradient id="paint0_linear_24348_22519" x1="49" y1="224" x2="235.233" y2="148.424" gradientUnits="userSpaceOnUse">
<stop stop-color="#7A6DEC"/>
<stop offset="0.685" stop-color="#5B39F3"/>
<stop offset="1" stop-color="#4101DB"/>
</linearGradient>
</defs>
</svg>
